<svg xmlns="http://www.w3.org/2000/svg" width="22" height="23" viewBox="0 0 22 23" fill="none"><g clip-path="url(#clip0_2011_91)"><path d="M13.7959 5.08366C14.6912 5.25834 15.514 5.69623 16.1591 6.34127C16.8041 6.9863 17.242 7.80915 17.4167 8.70449L13.7959 5.08366ZM13.7959 1.41699C15.656 1.62364 17.3906 2.45665 18.7149 3.77925C20.0392 5.10185 20.8744 6.83542 21.0834 8.69533L13.7959 1.41699ZM20.1667 16.0103V18.7603C20.1677 19.0156 20.1154 19.2683 20.0132 19.5022C19.9109 19.7361 19.7609 19.9461 19.5728 20.1187C19.3846 20.2913 19.1625 20.4227 18.9207 20.5045C18.6789 20.5863 18.4226 20.6166 18.1684 20.5937C15.3476 20.2872 12.6381 19.3233 10.2575 17.7795C8.0427 16.3721 6.16491 14.4943 4.75752 12.2795C3.20833 9.8881 2.24424 7.1654 1.94335 4.33199C1.92045 4.0785 1.95057 3.82302 2.03181 3.58181C2.11305 3.34061 2.24363 3.11896 2.41522 2.93098C2.58682 2.743 2.79567 2.59281 3.0285 2.48997C3.26132 2.38713 3.513 2.3339 3.76752 2.33366H6.51752C6.96238 2.32928 7.39366 2.48681 7.73097 2.7769C8.06827 3.06698 8.28859 3.46982 8.35085 3.91033C8.46692 4.79039 8.68218 5.65449 8.99252 6.48616C9.11585 6.81426 9.14254 7.17083 9.06943 7.51363C8.99632 7.85643 8.82648 8.17109 8.58002 8.42033L7.41585 9.58449C8.72078 11.8794 10.6209 13.7796 12.9159 15.0845L14.08 13.9203C14.3293 13.6739 14.6439 13.504 14.9867 13.4309C15.3295 13.3578 15.6861 13.3845 16.0142 13.5078C16.8459 13.8182 17.71 14.0334 18.59 14.1495C19.0353 14.2123 19.442 14.4366 19.7327 14.7797C20.0234 15.1228 20.1778 15.5608 20.1667 16.0103Z" stroke="#ffb15c" stroke-width="2" stroke-linecap="round" stroke-linejoin="round"></path></g><defs><clipPath id="clip0_2011_91"><rect width="22" height="22" fill="white" transform="translate(0 0.5)"></rect></clipPath></defs></svg>