<svg xmlns="http://www.w3.org/2000/svg" width="26" height="17" viewBox="0 0 26 17" fill="none"><path d="M18.8732 5.50779L20.9775 1.64735C21.0339 1.54372 21.0493 1.42066 21.0204 1.30505C20.9914 1.18943 20.9204 1.09065 20.8229 1.03026C20.7748 1.00032 20.7215 0.980802 20.6661 0.97283C20.6108 0.964858 20.5545 0.968593 20.5005 0.983821C20.4466 0.999048 20.396 1.02546 20.3517 1.06154C20.3075 1.09761 20.2704 1.14263 20.2427 1.19398L18.1122 5.10427C16.4855 4.31717 14.6547 3.87902 12.6857 3.87902C10.7167 3.87902 8.88588 4.3177 7.25923 5.10427L5.12868 1.19398C5.07191 1.09044 4.97863 1.01502 4.86936 0.984319C4.76008 0.953616 4.64377 0.970142 4.546 1.03026C4.44823 1.09038 4.37702 1.18917 4.34803 1.3049C4.31904 1.42062 4.33464 1.54381 4.39141 1.64735L6.49075 5.50779C2.86386 7.58782 0.405796 11.4776 0 16.0313H25.3684C24.9626 11.4776 22.5046 7.58782 18.8732 5.50779ZM6.85988 12.2584C6.64958 12.2584 6.444 12.1924 6.26914 12.0687C6.09429 11.9449 5.958 11.7691 5.87752 11.5633C5.79705 11.3575 5.77599 11.1311 5.81702 10.9127C5.85804 10.6942 5.95931 10.4936 6.10802 10.3361C6.25672 10.1786 6.44618 10.0714 6.65244 10.0279C6.8587 9.98449 7.07249 10.0068 7.26678 10.092C7.46108 10.1772 7.62714 10.3216 7.74398 10.5068C7.86081 10.6919 7.92317 10.9097 7.92317 11.1324C7.92304 11.431 7.81097 11.7173 7.6116 11.9285C7.41222 12.1396 7.14184 12.2583 6.85988 12.2584ZM18.5036 12.2584C18.2935 12.2575 18.0883 12.1907 17.9141 12.0664C17.7398 11.9421 17.6042 11.7659 17.5244 11.56C17.4446 11.3542 17.4242 11.1279 17.4657 10.9098C17.5073 10.6917 17.6089 10.4915 17.7578 10.3345C17.9066 10.1775 18.0961 10.0707 18.3022 10.0276C18.5084 9.98453 18.7219 10.0071 18.916 10.0925C19.11 10.1778 19.2758 10.3222 19.3924 10.5073C19.5091 10.6923 19.5713 10.9099 19.5713 11.1324C19.5713 11.2804 19.5436 11.4271 19.49 11.5638C19.4364 11.7006 19.3579 11.8248 19.2589 11.9294C19.1599 12.034 19.0424 12.1169 18.9132 12.1733C18.7839 12.2298 18.6454 12.2587 18.5056 12.2584H18.5036Z" fill="#242331"></path></svg>