<svg xmlns="http://www.w3.org/2000/svg" width="19" height="17" viewBox="0 0 19 17" fill="none"><path d="M13.9741 0.148438C11.9982 0.148438 11.1631 1.09311 9.78702 1.09311C8.37612 1.09311 7.29994 0.155311 5.58766 0.155311C3.91164 0.155311 2.12437 1.1805 0.989386 2.92696C-0.604303 5.38978 -0.333787 10.0282 2.24738 13.9797C3.17066 15.3942 4.40366 16.9806 6.02087 16.9978H6.05028C7.45578 16.9978 7.87332 16.0757 9.8076 16.0649H9.837C11.7424 16.0649 12.1246 16.9924 13.5242 16.9924H13.5536C15.1709 16.9752 16.47 15.2175 17.3933 13.8083C18.0578 12.7949 18.3048 12.2863 18.8145 11.1398C15.0807 9.71985 14.4809 4.41664 18.1735 2.38344C17.0463 0.969377 15.4624 0.150401 13.9692 0.150401L13.9741 0.148438Z" fill="white"></path></svg>